<svg width="343" height="356" viewBox="0 0 343 356" fill="none" xmlns="http://www.w3.org/2000/svg">
<path fill-rule="evenodd" clip-rule="evenodd" d="M112.061 289.062H229.492L250.244 355.469H342.285L210.938 0H130.371L0 355.469H91.5527L112.061 289.062ZM109.732 107.469C109.732 101.946 114.21 97.4688 119.732 97.4688H225.732C231.255 97.4688 235.732 101.946 235.732 107.469V174.469C235.732 179.992 231.255 184.469 225.732 184.469H186.429C186.372 189.49 186.676 192.793 187.957 196.469H196.732C197.837 196.469 198.732 197.364 198.732 198.469C198.732 199.573 197.837 200.469 196.732 200.469H148.732C147.628 200.469 146.732 199.573 146.732 198.469C146.732 197.364 147.628 196.469 148.732 196.469H157.199L157.294 196.068C158.276 191.913 159.075 188.534 159.124 184.469H119.732C114.21 184.469 109.732 179.992 109.732 174.469V107.469ZM125.885 206.469C123.725 206.469 121.809 207.856 121.135 209.907L114.889 228.907C113.826 232.141 116.235 235.469 119.639 235.469H225.826C229.23 235.469 231.639 232.141 230.576 228.907L224.33 209.907C223.656 207.856 221.74 206.469 219.58 206.469H125.885Z" fill="#3E3D5C"/>
</svg>
