<svg width="1636" height="107" viewBox="0 0 1636 107" fill="none" xmlns="http://www.w3.org/2000/svg">
<path d="M74.1797 105L69.1172 85.7344H35.7188L30.5156 105H0L33.5391 1.78125H70.5938L104.555 105H74.1797ZM63.3516 62.9531L58.9219 46.0781C57.8906 42.3281 56.625 37.4766 55.125 31.5234C53.6719 25.5703 52.7109 21.3047 52.2422 18.7266C51.8203 21.1172 50.9766 25.0547 49.7109 30.5391C48.4922 36.0234 45.75 46.8281 41.4844 62.9531H63.3516ZM213.609 105H177.188L139.641 32.5781H139.008C139.898 43.9688 140.344 52.6641 140.344 58.6641V105H115.734V2.20312H152.016L189.422 73.6406H189.844C189.188 63.2812 188.859 54.9609 188.859 48.6797V2.20312H213.609V105ZM323.086 51.4219C323.086 68.5781 318.352 81.7969 308.883 91.0781C299.461 100.359 286.195 105 269.086 105H235.828V2.20312H271.406C287.906 2.20312 300.633 6.42188 309.586 14.8594C318.586 23.2969 323.086 35.4844 323.086 51.4219ZM294.258 52.4062C294.258 42.9844 292.383 36 288.633 31.4531C284.93 26.9062 279.281 24.6328 271.688 24.6328H263.602V82.2188H269.789C278.227 82.2188 284.414 79.7812 288.352 74.9062C292.289 69.9844 294.258 62.4844 294.258 52.4062ZM369.352 67.5938V105H341.578V2.20312H375.258C403.195 2.20312 417.164 12.3281 417.164 32.5781C417.164 44.4844 411.352 53.6953 399.727 60.2109L429.68 105H398.18L376.383 67.5938H369.352ZM369.352 46.7109H374.555C384.258 46.7109 389.109 42.4219 389.109 33.8438C389.109 26.7656 384.352 23.2266 374.836 23.2266H369.352V46.7109ZM500.062 105H439.031V2.20312H500.062V24.4922H466.805V40.6641H497.602V62.9531H466.805V82.3594H500.062V105ZM629.086 105H596.25L586.406 60.2109C585.938 58.3359 585.188 54.6094 584.156 49.0312C583.172 43.4531 582.445 38.7891 581.977 35.0391C581.602 38.0859 580.992 41.8828 580.148 46.4297C579.305 50.9297 578.461 55.0781 577.617 58.875C576.82 62.6719 573.422 78.0469 567.422 105H534.586L509.133 2.20312H535.922L547.102 53.7422C549.633 65.1328 551.367 74.2031 552.305 80.9531C552.914 76.1719 553.992 69.6797 555.539 61.4766C557.133 53.2734 558.609 46.4766 559.969 41.0859L569.039 2.20312H594.773L603.562 41.0859C605.062 47.3203 606.586 54.5156 608.133 62.6719C609.68 70.8281 610.711 76.9219 611.227 80.9531C611.836 75.75 613.5 66.7266 616.219 53.8828L627.609 2.20312H654.398L629.086 105ZM690.117 2.34375L691.172 3.89062C686.859 21.0469 682.711 34.1953 678.727 43.3359H659.18C662.367 28.4766 664.664 14.8125 666.07 2.34375H690.117ZM770.906 73.7812C770.906 80.1562 769.289 85.8281 766.055 90.7969C762.82 95.7188 758.156 99.5625 752.062 102.328C745.969 105.047 738.82 106.406 730.617 106.406C723.773 106.406 718.031 105.938 713.391 105C708.75 104.016 703.922 102.328 698.906 99.9375V75.1875C704.203 77.9062 709.711 80.0391 715.43 81.5859C721.148 83.0859 726.398 83.8359 731.18 83.8359C735.305 83.8359 738.328 83.1328 740.25 81.7266C742.172 80.2734 743.133 78.4219 743.133 76.1719C743.133 74.7656 742.734 73.5469 741.938 72.5156C741.188 71.4375 739.945 70.3594 738.211 69.2812C736.523 68.2031 731.977 66 724.57 62.6719C717.867 59.625 712.828 56.6719 709.453 53.8125C706.125 50.9531 703.641 47.6719 702 43.9688C700.406 40.2656 699.609 35.8828 699.609 30.8203C699.609 21.3516 703.055 13.9687 709.945 8.67188C716.836 3.375 726.305 0.726562 738.352 0.726562C748.992 0.726562 759.844 3.1875 770.906 8.10938L762.398 29.5547C752.789 25.1484 744.492 22.9453 737.508 22.9453C733.898 22.9453 731.273 23.5781 729.633 24.8438C727.992 26.1094 727.172 27.6797 727.172 29.5547C727.172 31.5703 728.203 33.375 730.266 34.9688C732.375 36.5625 738.047 39.4688 747.281 43.6875C756.141 47.6719 762.281 51.9609 765.703 56.5547C769.172 61.1016 770.906 66.8438 770.906 73.7812ZM898.805 34.8984C898.805 46.3828 895.406 55.2656 888.609 61.5469C881.859 67.7812 872.25 70.8984 859.781 70.8984H851.977V105H824.203V2.20312H859.781C872.766 2.20312 882.516 5.03906 889.031 10.7109C895.547 16.3828 898.805 24.4453 898.805 34.8984ZM851.977 48.2578H857.039C861.211 48.2578 864.516 47.0859 866.953 44.7422C869.438 42.3984 870.68 39.1641 870.68 35.0391C870.68 28.1016 866.836 24.6328 859.148 24.6328H851.977V48.2578ZM1011.38 53.4609C1011.38 70.7578 1007.13 83.9062 998.648 92.9062C990.164 101.906 977.742 106.406 961.383 106.406C945.258 106.406 932.883 101.883 924.258 92.8359C915.68 83.7891 911.391 70.6172 911.391 53.3203C911.391 36.2109 915.656 23.1562 924.188 14.1562C932.766 5.10937 945.211 0.585938 961.523 0.585938C977.883 0.585938 990.281 5.0625 998.719 14.0156C1007.16 22.9688 1011.38 36.1172 1011.38 53.4609ZM940.641 53.4609C940.641 73.3359 947.555 83.2734 961.383 83.2734C968.414 83.2734 973.617 80.8594 976.992 76.0312C980.414 71.2031 982.125 63.6797 982.125 53.4609C982.125 43.1953 980.391 35.625 976.922 30.75C973.5 25.8281 968.367 23.3672 961.523 23.3672C947.602 23.3672 940.641 33.3984 940.641 53.4609ZM1057.71 67.5938V105H1029.94V2.20312H1063.62C1091.55 2.20312 1105.52 12.3281 1105.52 32.5781C1105.52 44.4844 1099.71 53.6953 1088.09 60.2109L1118.04 105H1086.54L1064.74 67.5938H1057.71ZM1057.71 46.7109H1062.91C1072.62 46.7109 1077.47 42.4219 1077.47 33.8438C1077.47 26.7656 1072.71 23.2266 1063.2 23.2266H1057.71V46.7109ZM1172.74 105H1144.97V24.9141H1119.87V2.20312H1197.77V24.9141H1172.74V105ZM1239.82 105H1212.47V2.20312H1273.22V24.4922H1239.82V44.1094H1270.62V66.3984H1239.82V105ZM1386.28 53.4609C1386.28 70.7578 1382.04 83.9062 1373.55 92.9062C1365.07 101.906 1352.65 106.406 1336.29 106.406C1320.16 106.406 1307.79 101.883 1299.16 92.8359C1290.59 83.7891 1286.3 70.6172 1286.3 53.3203C1286.3 36.2109 1290.56 23.1562 1299.09 14.1562C1307.67 5.10937 1320.12 0.585938 1336.43 0.585938C1352.79 0.585938 1365.19 5.0625 1373.62 14.0156C1382.06 22.9688 1386.28 36.1172 1386.28 53.4609ZM1315.55 53.4609C1315.55 73.3359 1322.46 83.2734 1336.29 83.2734C1343.32 83.2734 1348.52 80.8594 1351.9 76.0312C1355.32 71.2031 1357.03 63.6797 1357.03 53.4609C1357.03 43.1953 1355.3 35.625 1351.83 30.75C1348.41 25.8281 1343.27 23.3672 1336.43 23.3672C1322.51 23.3672 1315.55 33.3984 1315.55 53.4609ZM1404.84 105V2.20312H1432.62V82.5703H1472.2V105H1404.84ZM1488.66 105V2.20312H1516.57V105H1488.66ZM1635.05 53.4609C1635.05 70.7578 1630.8 83.9062 1622.32 92.9062C1613.84 101.906 1601.41 106.406 1585.05 106.406C1568.93 106.406 1556.55 101.883 1547.93 92.8359C1539.35 83.7891 1535.06 70.6172 1535.06 53.3203C1535.06 36.2109 1539.33 23.1562 1547.86 14.1562C1556.44 5.10937 1568.88 0.585938 1585.2 0.585938C1601.55 0.585938 1613.95 5.0625 1622.39 14.0156C1630.83 22.9688 1635.05 36.1172 1635.05 53.4609ZM1564.31 53.4609C1564.31 73.3359 1571.23 83.2734 1585.05 83.2734C1592.09 83.2734 1597.29 80.8594 1600.66 76.0312C1604.09 71.2031 1605.8 63.6797 1605.8 53.4609C1605.8 43.1953 1604.06 35.625 1600.59 30.75C1597.17 25.8281 1592.04 23.3672 1585.2 23.3672C1571.27 23.3672 1564.31 33.3984 1564.31 53.4609Z" fill="#F8F8F8"/>
</svg>
